<svg xmlns="http://www.w3.org/2000/svg" width="209.3" height="75.443" viewBox="0 0 209.3 75.443"><defs><style>.a{opacity:0.35;}.b{fill:#fff;}</style></defs><g class="a"><g transform="translate(91.15 24.185)"><path class="b" d="M6682.243,2060.4a14.846,14.846,0,0,1-5.585-1.052,14.519,14.519,0,0,1-4.605-2.923,13.745,13.745,0,0,1-3.106-4.342,13.153,13.153,0,0,1,0-10.636,13.716,13.716,0,0,1,3.106-4.35,14.558,14.558,0,0,1,4.591-2.924,14.763,14.763,0,0,1,5.584-1.052,15.392,15.392,0,0,1,4.6.685,12.933,12.933,0,0,1,3.744,1.8l-2.23,4.382a7.978,7.978,0,0,0-2.6-1.322,10.671,10.671,0,0,0-3.2-.478,9.951,9.951,0,0,0-3.625.645,8.759,8.759,0,0,0-2.9,1.816,8.418,8.418,0,0,0,0,12.222,8.753,8.753,0,0,0,2.9,1.816,9.954,9.954,0,0,0,3.625.646,10.675,10.675,0,0,0,3.2-.478,7.95,7.95,0,0,0,2.6-1.323l2.23,4.382a13.5,13.5,0,0,1-3.672,1.776A14.953,14.953,0,0,1,6682.243,2060.4Z" transform="translate(-6667.823 -2033.119)"/><path class="b" d="M6716.959,2066.614a10.6,10.6,0,0,1-4.884-1.107,8.741,8.741,0,0,1-3.442-3.059,8.633,8.633,0,0,1,0-9,8.763,8.763,0,0,1,3.435-3.059,11.286,11.286,0,0,1,9.751,0,8.767,8.767,0,0,1,3.434,3.059,8.633,8.633,0,0,1,0,9,8.756,8.756,0,0,1-3.434,3.059A10.522,10.522,0,0,1,6716.959,2066.614Zm0-4.175a4.538,4.538,0,0,0,2.262-.573,4.245,4.245,0,0,0,1.61-1.586,4.921,4.921,0,0,0,0-4.669,4.236,4.236,0,0,0-1.61-1.585,4.764,4.764,0,0,0-4.532,0,4.3,4.3,0,0,0-1.61,1.585,4.858,4.858,0,0,0,0,4.669,4.308,4.308,0,0,0,1.61,1.586A4.524,4.524,0,0,0,6716.959,2062.439Z" transform="translate(-6683.035 -2039.335)"/><path class="b" d="M6744.63,2066.1v-16.317h4.908v1.8a7.05,7.05,0,0,1,2.343-1.666,7.462,7.462,0,0,1,3.122-.645,6.575,6.575,0,0,1,3.3.813,5.8,5.8,0,0,1,2.246,2.279,6.914,6.914,0,0,1,.812,3.41V2066.1h-4.891v-9.289a3.845,3.845,0,0,0-.917-2.733,3.27,3.27,0,0,0-2.51-.979,3.748,3.748,0,0,0-1.864.438,3.114,3.114,0,0,0-1.21,1.195,3.4,3.4,0,0,0-.43,1.713v9.656Z" transform="translate(-6697.371 -2039.335)"/><path class="b" d="M6786.817,2066.614a9.753,9.753,0,0,1-4.748-1.147,8.738,8.738,0,0,1-3.313-3.1,8.2,8.2,0,0,1-1.212-4.422,8.41,8.41,0,0,1,2.613-6.158,9.017,9.017,0,0,1,2.885-1.848,9.417,9.417,0,0,1,3.553-.661,9.162,9.162,0,0,1,4.47,1.052,7.548,7.548,0,0,1,3,2.94,8.8,8.8,0,0,1,1.092,4.374c-.011.138-.019.26-.024.367s-.023.3-.056.59h-12.508a4.07,4.07,0,0,0,.565,2.159,3.85,3.85,0,0,0,1.586,1.449,5.175,5.175,0,0,0,2.374.518,4.828,4.828,0,0,0,2.247-.5,6.468,6.468,0,0,0,1.9-1.585l3.521,1.784a8.048,8.048,0,0,1-3.25,3.075A9.848,9.848,0,0,1,6786.817,2066.614Zm-4.095-10.74h7.6a3.619,3.619,0,0,0-.678-1.633,3.432,3.432,0,0,0-1.313-1.043,4.265,4.265,0,0,0-1.8-.366,4.538,4.538,0,0,0-1.881.366,3.279,3.279,0,0,0-1.313,1.043A3.326,3.326,0,0,0,6782.723,2055.874Z" transform="translate(-6710.032 -2039.335)"/><path class="b" d="M6807.635,2066.423l6.964-8.525-5.975-7.792h5.672l3.282,4.382,3.283-4.382h5.688l-5.99,7.792,6.962,8.525h-5.863l-4.08-5.163-4.079,5.163Z" transform="translate(-6721.608 -2039.654)"/><path class="b" d="M6848.967,2063.117a4.752,4.752,0,0,1-3.784-1.545,6.384,6.384,0,0,1-1.346-4.334V2050h-2.2v-3.713h2.2v-6.1h4.875v6.1h3.585V2050h-3.585v6.867a2.281,2.281,0,0,0,.366,1.4,1.265,1.265,0,0,0,1.068.478,2.455,2.455,0,0,0,1.466-.51l1.228,3.92a7.9,7.9,0,0,1-1.856.7A8.366,8.366,0,0,1,6848.967,2063.117Z" transform="translate(-6734.688 -2035.838)"/></g><path class="b" d="M6557.412,1993.813a37.722,37.722,0,1,0,37.716,37.716A37.763,37.763,0,0,0,6557.412,1993.813Zm20.312,48.756a15.617,15.617,0,0,1-20.312,1.546l-.285.2a15.483,15.483,0,0,1-8.971,2.839,15.626,15.626,0,0,1,0-31.252,15.453,15.453,0,0,1,8.971,2.834l.279.2a15.63,15.63,0,0,1,20.317,23.637Z" transform="translate(-6519.685 -1993.813)"/><g transform="translate(40.244 25.563)"><path class="b" d="M6603.972,2047.49v.022a12.148,12.148,0,0,1-18.882,10.127l9.056-10.127-9.039-10.132a12.38,12.38,0,0,1,6.728-2.021,12.135,12.135,0,0,1,12.138,12.132Z" transform="translate(-6585.09 -2035.358)"/></g><g transform="translate(30.191 31.89)"><path class="b" d="M6578.008,2057.283v-2.918h-9.256v-5.794h9.256v-2.929l5.214,5.826Z" transform="translate(-6568.751 -2045.641)"/></g><g transform="translate(16.301 25.563)"><path class="b" d="M6556.605,2041.142v12.739h9.246v3.171a12.145,12.145,0,1,1,0-19.1v3.188Z" transform="translate(-6546.178 -2035.358)"/></g></g></svg>