<svg xmlns="http://www.w3.org/2000/svg" width="208.38" height="75.112" viewBox="0 0 208.38 75.112"><defs><style>.a{fill:#fff;}</style></defs><g transform="translate(90.75 24.079)"><path class="a" d="M301.98,164.568a14.782,14.782,0,0,1-5.56-1.048,14.456,14.456,0,0,1-4.585-2.91,13.681,13.681,0,0,1-3.092-4.323,13.1,13.1,0,0,1,0-10.59,13.654,13.654,0,0,1,3.092-4.331,14.509,14.509,0,0,1,4.57-2.911,14.713,14.713,0,0,1,5.56-1.047,15.312,15.312,0,0,1,4.585.682,12.865,12.865,0,0,1,3.727,1.792l-2.22,4.362a7.935,7.935,0,0,0-2.586-1.317,10.618,10.618,0,0,0-3.189-.476,9.907,9.907,0,0,0-3.609.642,8.742,8.742,0,0,0-2.887,1.809,8.383,8.383,0,0,0,0,12.168,8.725,8.725,0,0,0,2.887,1.809,9.9,9.9,0,0,0,3.609.642,10.635,10.635,0,0,0,3.189-.476,7.927,7.927,0,0,0,2.586-1.317l2.22,4.363a13.43,13.43,0,0,1-3.656,1.768A14.875,14.875,0,0,1,301.98,164.568Z" transform="translate(-287.624 -137.409)"/><path class="a" d="M342.951,173.375a10.56,10.56,0,0,1-4.862-1.1,8.7,8.7,0,0,1-3.426-3.046,8.591,8.591,0,0,1,0-8.963,8.72,8.72,0,0,1,3.419-3.046,11.239,11.239,0,0,1,9.708,0,8.722,8.722,0,0,1,3.418,3.046,8.591,8.591,0,0,1,0,8.963,8.717,8.717,0,0,1-3.418,3.046A10.477,10.477,0,0,1,342.951,173.375Zm0-4.157a4.52,4.52,0,0,0,2.253-.571,4.218,4.218,0,0,0,1.6-1.578,4.9,4.9,0,0,0,0-4.648,4.215,4.215,0,0,0-1.6-1.579,4.745,4.745,0,0,0-4.513,0,4.283,4.283,0,0,0-1.6,1.579,4.838,4.838,0,0,0,0,4.648,4.287,4.287,0,0,0,1.6,1.578A4.5,4.5,0,0,0,342.951,169.219Z" transform="translate(-309.177 -146.216)"/><path class="a" d="M376.54,172.867V156.622h4.887v1.793a7.011,7.011,0,0,1,2.332-1.658,7.418,7.418,0,0,1,3.109-.642,6.547,6.547,0,0,1,3.284.809,5.775,5.775,0,0,1,2.237,2.269,6.886,6.886,0,0,1,.809,3.4v10.28h-4.87v-9.248a3.83,3.83,0,0,0-.912-2.721,3.254,3.254,0,0,0-2.5-.975,3.735,3.735,0,0,0-1.856.436,3.1,3.1,0,0,0-1.2,1.19,3.384,3.384,0,0,0-.428,1.706v9.613Z" transform="translate(-329.489 -146.216)"/><path class="a" d="M423.876,173.375a9.705,9.705,0,0,1-4.727-1.142,8.7,8.7,0,0,1-3.3-3.086,8.173,8.173,0,0,1-1.206-4.4,8.362,8.362,0,0,1,2.6-6.131,8.961,8.961,0,0,1,2.871-1.84,9.379,9.379,0,0,1,3.538-.658,9.112,9.112,0,0,1,4.449,1.047,7.52,7.52,0,0,1,2.982,2.927,8.761,8.761,0,0,1,1.087,4.355c-.011.138-.018.259-.024.365s-.024.3-.056.587H419.641a4.061,4.061,0,0,0,.563,2.15,3.834,3.834,0,0,0,1.579,1.443,5.149,5.149,0,0,0,2.363.516,4.805,4.805,0,0,0,2.237-.5,6.424,6.424,0,0,0,1.888-1.578l3.505,1.777a8,8,0,0,1-3.235,3.062A9.8,9.8,0,0,1,423.876,173.375ZM419.8,162.682h7.567a3.605,3.605,0,0,0-.674-1.626,3.419,3.419,0,0,0-1.309-1.039,4.24,4.24,0,0,0-1.793-.365,4.514,4.514,0,0,0-1.872.365,3.266,3.266,0,0,0-1.308,1.039A3.314,3.314,0,0,0,419.8,162.682Z" transform="translate(-347.429 -146.216)"/><path class="a" d="M449.479,173.319l6.933-8.487-5.949-7.758h5.648l3.268,4.363,3.268-4.363h5.663l-5.964,7.758,6.932,8.487H463.44l-4.061-5.14-4.061,5.14Z" transform="translate(-363.831 -146.668)"/><path class="a" d="M496.14,168.421a4.731,4.731,0,0,1-3.768-1.539,6.357,6.357,0,0,1-1.34-4.315v-7.2h-2.189v-3.7h2.189v-6.076h4.855v6.076h3.569v3.7h-3.569V162.2a2.27,2.27,0,0,0,.364,1.4,1.26,1.26,0,0,0,1.063.476,2.443,2.443,0,0,0,1.459-.507l1.222,3.9a7.87,7.87,0,0,1-1.848.7A8.315,8.315,0,0,1,496.14,168.421Z" transform="translate(-382.365 -141.262)"/></g><g transform="translate(0 0)"><path class="a" d="M153.689,91.9a37.556,37.556,0,1,0,37.55,37.551A37.6,37.6,0,0,0,153.689,91.9Zm20.223,48.542a15.548,15.548,0,0,1-20.223,1.539l-.284.2a15.416,15.416,0,0,1-8.932,2.827,15.557,15.557,0,0,1,0-31.114,15.386,15.386,0,0,1,8.932,2.822l.278.195a15.561,15.561,0,0,1,20.228,23.533Z" transform="translate(-116.128 -91.905)"/><g transform="translate(40.067 25.45)"><path class="a" d="M210.645,152.079v.021a12.094,12.094,0,0,1-18.8,10.082l9.016-10.082-9-10.088a12.333,12.333,0,0,1,6.7-2.012,12.082,12.082,0,0,1,12.084,12.079Z" transform="translate(-191.846 -140)"/></g><g transform="translate(30.058 31.75)"><path class="a" d="M182.147,163.5V160.59h-9.216v-5.769h9.216v-2.916l5.191,5.8Z" transform="translate(-172.931 -151.905)"/></g><g transform="translate(16.23 25.45)"><path class="a" d="M157.181,145.758v12.684h9.2V161.6a12.093,12.093,0,1,1,0-19.014v3.173Z" transform="translate(-146.799 -140)"/></g></g></svg>