<svg xmlns="http://www.w3.org/2000/svg" width="45.006" height="45.008" viewBox="0 0 45.006 45.008"><defs><style>.a{opacity:0.25;}.b{fill:#fff;}.c{fill:#000a06;stroke:#fff;stroke-miterlimit:10;stroke-width:2px;}</style></defs><g class="a"><g transform="translate(0 0)"><path class="b" d="M14051.06,10689.615a22.5,22.5,0,1,0,10.486,13.658A22.5,22.5,0,0,0,14051.06,10689.615Zm-.221,25.854-17.386,4.658a3.009,3.009,0,0,1-3.675-2.121l-3.106-11.592a3.009,3.009,0,0,1,2.121-3.674l17.387-4.659a3.009,3.009,0,0,1,3.674,2.121l3.106,11.592A3.01,3.01,0,0,1,14050.839,10715.47Z" transform="translate(-14017.311 -10686.6)"/><path class="c" d="M14064.787,10730.69l-14.309-7.036-8.873,13.248" transform="translate(-14028.75 -10704.046)"/><path class="c" d="M14034.268,10715.782l14.309,7.036,8.873-13.248" transform="translate(-14025.295 -10697.415)"/></g></g></svg>