<svg xmlns="http://www.w3.org/2000/svg" width="384.295" height="384.294" viewBox="0 0 384.295 384.294"><defs><style>.a{opacity:0.1;}.b{fill:#00de81;}</style></defs><g class="a" transform="translate(0 0)"><path class="b" d="M2516.583,5470.867c-105.965,0-192.174,86.181-192.174,192.121,0,105.966,86.209,192.174,192.174,192.174,105.939,0,192.121-86.208,192.121-192.174C2708.7,5557.048,2622.522,5470.867,2516.583,5470.867Zm103.467,248.355a79.551,79.551,0,0,1-103.467,7.877l-1.451,1.022a78.872,78.872,0,0,1-45.7,14.461,79.6,79.6,0,0,1,0-159.191,78.716,78.716,0,0,1,45.7,14.436l1.425.994a79.614,79.614,0,0,1,103.493,120.4Z" transform="translate(-2324.409 -5470.867)"/><g transform="translate(204.997 130.213)"><path class="b" d="M2783.5,5763.182v.107a61.881,61.881,0,0,1-96.181,51.585l46.128-51.585-46.048-51.612a63.089,63.089,0,0,1,34.274-10.3,61.814,61.814,0,0,1,61.827,61.8Z" transform="translate(-2687.314 -5701.381)"/></g><g transform="translate(153.788 162.444)"><path class="b" d="M2643.809,5817.74v-14.865h-47.15v-29.516h47.15V5758.44l26.559,29.676Z" transform="translate(-2596.659 -5758.44)"/></g><g transform="translate(83.036 130.213)"><path class="b" d="M2524.525,5730.843v64.893h47.1v16.155a61.868,61.868,0,1,1,0-97.283v16.235Z" transform="translate(-2471.408 -5701.381)"/></g></g></svg>