<svg xmlns="http://www.w3.org/2000/svg" width="45" height="45" viewBox="0 0 45 45"><defs><style>.a{opacity:0.25;}.b{fill:#fff;}</style></defs><g class="a"><path class="b" d="M376.831,1984.252h0a22.5,22.5,0,0,0-22.5,22.5h0a22.5,22.5,0,0,0,22.5,22.5h0a22.5,22.5,0,0,0,22.5-22.5h0A22.5,22.5,0,0,0,376.831,1984.252Zm-5.357,32.961a.758.758,0,0,1-.758.758h-3.225a.758.758,0,0,1-.757-.758v-13.519a.758.758,0,0,1,.757-.758h3.225a.758.758,0,0,1,.758.758Zm-2.37-15.551a3.064,3.064,0,1,1,3.064-3.064A3.064,3.064,0,0,1,369.1,2001.662Zm19.224,15.612a.7.7,0,0,1-.7.7h-3.461a.7.7,0,0,1-.7-.7v-6.341c0-.946.278-4.146-2.472-4.146-2.133,0-2.565,2.19-2.652,3.172v7.314a.7.7,0,0,1-.7.7h-3.348a.7.7,0,0,1-.7-.7v-13.641a.7.7,0,0,1,.7-.7h3.348a.7.7,0,0,1,.7.7v1.179c.791-1.187,1.966-2.1,4.469-2.1,5.541,0,5.51,5.177,5.51,8.022v6.543Z" transform="translate(-354.331 -1984.252)"/></g></svg>