<svg xmlns="http://www.w3.org/2000/svg" width="44.805" height="44.798" viewBox="0 0 44.805 44.798"><defs><style>.a{opacity:0.25;}.b{fill:#fff;}</style></defs><g class="a"><g transform="translate(0 0)"><path class="b" d="M249.174,1984.254a22.4,22.4,0,1,0,22.4,22.4A22.427,22.427,0,0,0,249.174,1984.254Zm13.212,27.776a9.743,9.743,0,0,1-.625,3.251,6.929,6.929,0,0,1-3.963,3.962,9.851,9.851,0,0,1-3.243.625c-1.4.058-1.854.08-5.381.08s-3.985-.022-5.381-.08a9.851,9.851,0,0,1-3.243-.625,6.619,6.619,0,0,1-2.407-1.563,6.754,6.754,0,0,1-1.564-2.4,9.939,9.939,0,0,1-.618-3.251c-.065-1.389-.08-1.847-.08-5.373s.015-3.992.08-5.38a9.741,9.741,0,0,1,.625-3.25,6.619,6.619,0,0,1,1.564-2.4,6.688,6.688,0,0,1,2.4-1.563,10.039,10.039,0,0,1,3.243-.625c1.4-.058,1.869-.072,5.381-.072s3.978.014,5.381.08a9.894,9.894,0,0,1,3.243.618,6.907,6.907,0,0,1,3.97,3.97,9.858,9.858,0,0,1,.618,3.243c.066,1.389.08,1.854.08,5.38S262.452,2010.641,262.386,2012.03Z" transform="translate(-226.772 -1984.254)"/><path class="b" d="M270.181,2012.082a7.16,7.16,0,0,0-.429-2.334,3.806,3.806,0,0,0-.909-1.4,3.876,3.876,0,0,0-1.4-.916,6.766,6.766,0,0,0-2.334-.429c-1.375-.066-1.789-.08-5.25-.08s-3.876.014-5.249.08a6.675,6.675,0,0,0-2.327.429,4.032,4.032,0,0,0-2.32,2.312,7.163,7.163,0,0,0-.429,2.334c-.066,1.374-.073,1.782-.073,5.25s.007,3.876.073,5.243a7.074,7.074,0,0,0,.429,2.334,3.834,3.834,0,0,0,.909,1.4,3.794,3.794,0,0,0,1.4.908,6.9,6.9,0,0,0,2.334.437c1.359.058,1.766.073,5.249.073s3.89-.014,5.25-.073a6.8,6.8,0,0,0,2.326-.437,4.055,4.055,0,0,0,2.32-2.312,7.118,7.118,0,0,0,.429-2.334c.058-1.359.072-1.774.072-5.243S270.239,2013.449,270.181,2012.082Zm-10.326,12.209a6.959,6.959,0,1,1,6.959-6.959A6.968,6.968,0,0,1,259.856,2024.291Zm6.952-12.078a1.832,1.832,0,1,1,1.832-1.832A1.84,1.84,0,0,1,266.807,2012.213Z" transform="translate(-237.453 -1994.929)"/><path class="b" d="M269.556,2022.967a4.065,4.065,0,1,1-4.065-4.072A4.072,4.072,0,0,1,269.556,2022.967Z" transform="translate(-243.088 -2000.564)"/></g></g></svg>