<svg xmlns="http://www.w3.org/2000/svg" width="36.368" height="36.367" viewBox="0 0 36.368 36.367"><defs><style>.a{fill:#fff;}</style></defs><path class="a" d="M5800.861,14529.7h0a18.184,18.184,0,0,0-18.184,18.184h0a18.184,18.184,0,0,0,18.184,18.184h0a18.183,18.183,0,0,0,18.184-18.184h0A18.183,18.183,0,0,0,5800.861,14529.7Zm-4.33,26.638a.613.613,0,0,1-.612.612h-2.606a.612.612,0,0,1-.612-.612v-10.926a.612.612,0,0,1,.612-.612h2.606a.613.613,0,0,1,.612.612Zm-1.915-12.567a2.477,2.477,0,1,1,2.476-2.477A2.477,2.477,0,0,1,5794.616,14543.77Zm15.536,12.617a.563.563,0,0,1-.562.563h-2.8a.563.563,0,0,1-.562-.562v-5.125c0-.765.224-3.35-2-3.35-1.724,0-2.073,1.77-2.144,2.563v5.912a.563.563,0,0,1-.563.563h-2.7a.563.563,0,0,1-.563-.562v-11.025a.563.563,0,0,1,.563-.562h2.7a.563.563,0,0,1,.563.563v.953a3.84,3.84,0,0,1,3.612-1.7c4.478,0,4.453,4.184,4.453,6.483v5.288Z" transform="translate(-5782.677 -14529.699)"/></svg>