<svg xmlns="http://www.w3.org/2000/svg" width="45" height="45.001" viewBox="0 0 45 45.001"><defs><style>.a{opacity:0.25;}.b{fill:#fff;}</style></defs><g class="a"><path class="b" d="M13673.053,10693.194a22.5,22.5,0,1,0,6.593,15.907A22.5,22.5,0,0,0,13673.053,10693.194Zm-4.332,24.755,0,0v-.006l-1.141,1.131a6,6,0,0,1-5.662,1.621,19.924,19.924,0,0,1-5.79-2.6,27.7,27.7,0,0,1-7.979-7.822,20.966,20.966,0,0,1-2.566-5.189,6.006,6.006,0,0,1,1.5-6.128l1.336-1.335a.951.951,0,0,1,1.347,0l0,0,4.215,4.215a.954.954,0,0,1,0,1.348l0,0-2.475,2.476a2.018,2.018,0,0,0-.21,2.625,29.551,29.551,0,0,0,6.862,6.735,2.034,2.034,0,0,0,2.6-.226l2.393-2.431a.952.952,0,0,1,1.346,0l0,0,4.223,4.23A.952.952,0,0,1,13668.721,10717.949Z" transform="translate(-13634.646 -10686.606)"/></g></svg>