<svg xmlns="http://www.w3.org/2000/svg" width="75" height="75" viewBox="0 0 75 75"><defs><style>.a{fill:#fff;}</style></defs><g transform="translate(0 0)"><path class="a" d="M3408.894,1910.192a37.5,37.5,0,1,0,10.988,26.513A37.5,37.5,0,0,0,3408.894,1910.192Zm-7.22,41.258,0,.005v-.013l-1.9,1.887a10,10,0,0,1-9.437,2.7,33.214,33.214,0,0,1-9.65-4.325,46.212,46.212,0,0,1-13.3-13.038,34.977,34.977,0,0,1-4.274-8.65,10,10,0,0,1,2.5-10.212l2.225-2.225a1.587,1.587,0,0,1,2.245,0l.005,0,7.024,7.025a1.587,1.587,0,0,1,.005,2.245l-.005.005-4.125,4.125a3.362,3.362,0,0,0-.35,4.375,49.226,49.226,0,0,0,11.438,11.225,3.387,3.387,0,0,0,4.325-.375l3.987-4.05a1.588,1.588,0,0,1,2.245,0l0,0,7.038,7.05A1.587,1.587,0,0,1,3401.675,1951.449Z" transform="translate(-3344.882 -1899.212)"/></g></svg>