<svg xmlns="http://www.w3.org/2000/svg" width="45.367" height="35.065" viewBox="0 0 45.367 35.065"><defs><style>.a{fill:#fff;}</style></defs><g transform="translate(0)"><path class="a" d="M7353.626,2319.316a15.1,15.1,0,0,0,2.339-.674,4.022,4.022,0,0,1,.7-.2,4.725,4.725,0,0,0,.606-.216,1.015,1.015,0,0,0,.628-.815,2.366,2.366,0,0,1,1.9-1.912.349.349,0,0,1,.471.25,1.342,1.342,0,0,1-.146,1.169,3.781,3.781,0,0,1-.942.944,3.115,3.115,0,0,0-.349.31.338.338,0,0,0-.008.1c.146.545.248.582.787.5a2,2,0,0,0,1.266-.782,15.9,15.9,0,0,0,1.244-1.816.912.912,0,0,0,.116-.456,22.757,22.757,0,0,1,.261-3.194,7.12,7.12,0,0,1,.991-2.733,2.129,2.129,0,0,1,1.143-.946c.341-.11.523-.014.512.346a9.875,9.875,0,0,1-.151,1.392c-.076.431-.2.853-.316,1.276a3.146,3.146,0,0,1-.164.4c-.023.053-.081.112-.07.155.085.374-.16.675-.218,1.018a1.909,1.909,0,0,1-.4.709,1.239,1.239,0,0,0-.257.589,1.486,1.486,0,0,1-.212.469c-.142.266-.306.52-.434.793a1.384,1.384,0,0,0-.182.607c.035.672.113,1.343.188,2.012a2.131,2.131,0,0,0,.156.436,1.408,1.408,0,0,0,.47-.994c0-.489.357-.926.7-.831s.78.005.974.444c.285-.367.564-.709.825-1.064a1.739,1.739,0,0,1,1.008-.621.305.305,0,0,1,.413.206.814.814,0,0,1,.085.382c-.1.611.341.991.552,1.487a1.887,1.887,0,0,0,.936-.641c.258-.271.449-.609.693-.9a.742.742,0,0,0,.154-.573c-.05-.826-.147-1.653-.135-2.479a4.449,4.449,0,0,1,1.393-3.382,3.536,3.536,0,0,1,.812-.472.216.216,0,0,1,.326.178,3.009,3.009,0,0,1,.071.727c-.052.715-.105,1.434-.216,2.142a10.425,10.425,0,0,1-.371,1.345,6.188,6.188,0,0,1-.272.784c-.257.566-.537,1.12-.805,1.68a.623.623,0,0,0-.1.276,7.538,7.538,0,0,0,.51,2.054c.222-.227.12-.435.075-.638-.027-.122-.1-.262-.069-.359a.571.571,0,0,1,.284-.309,6.95,6.95,0,0,0,1.512-1.062,1.52,1.52,0,0,0,.61-1.258,9.64,9.64,0,0,1,.785-3.135,3.843,3.843,0,0,1,.981-1.415,4.064,4.064,0,0,1,.622-.383c.193-.111.322-.029.421.153a1.909,1.909,0,0,1,.063,1.567c-.021.068-.082.13-.084.2a4.049,4.049,0,0,1-.85,2.1c-.16.24-.292.5-.449.741-.068.106-.174.187-.248.291a7.472,7.472,0,0,0-.759,1.13,1.951,1.951,0,0,0-.068.907,3.1,3.1,0,0,0,.336,1.35c.183.324.269.364.584.187a6.155,6.155,0,0,0,.777-.547c.527-.417.932-.425,1.223.068a4.977,4.977,0,0,0,.51.647,1.74,1.74,0,0,0,1,.721.838.838,0,0,1,.221.109c-.008.429-.039.478-.4.441a1.592,1.592,0,0,1-1.014-.417,7.456,7.456,0,0,0-.667-.551.76.76,0,0,0-1.062,0,4.932,4.932,0,0,1-.58.374.982.982,0,0,1-1.2-.534,3.564,3.564,0,0,1-.31-1.531c.009-.169.038-.361-.147-.443-.275.209-.536.409-.8.606a.652.652,0,0,0-.263.61,1.4,1.4,0,0,1-.146.756,3.377,3.377,0,0,0-.131.811,1.362,1.362,0,0,1-.162.483.3.3,0,0,1-.549-.04c-.223-.507-.426-1.024-.615-1.546-.149-.412-.263-.838-.4-1.255-.016-.049-.069-.085-.121-.146-.25.263-.477.525-.729.757s-.51.417-.769.619a.515.515,0,0,1-.573.031,1.494,1.494,0,0,1-.727-.527,1.139,1.139,0,0,0-.222-.2,1.337,1.337,0,0,1-1.013.477c-.049,0-.1.054-.148.084-.461.28-.8.109-.854-.431a.36.36,0,0,0-.027-.081c-.627-.072-.734.183-.9.573a5.335,5.335,0,0,1-.6,1.051c-.252.342-.341.328-.826.08-.142-.83-.29-1.7-.438-2.564-.057.018-.1.019-.108.037-.231.364-.47.724-.684,1.1a3.234,3.234,0,0,1-1.317,1.031c-.237.057-.473.12-.713.159a.955.955,0,0,1-1.109-.529c-.071-.123-.153-.24-.24-.375a42.869,42.869,0,0,1-4.444,1.471c-.035.368-.07.757-.108,1.144-.055.554-.1,1.11-.173,1.661a12.844,12.844,0,0,1-1.022,3.206c-.268.646-.565,1.28-.828,1.928a35.445,35.445,0,0,1-2.293,4.763q-1.044,1.767-2.127,3.511a8.1,8.1,0,0,1-.521.644c-.656.852-1.3,1.71-1.962,2.56-.32.412-.64.828-.994,1.209a3.994,3.994,0,0,1-.747.595c-.781.515-1.566,1.027-2.366,1.514a12.077,12.077,0,0,1-1.3.663c-.093.043-.238-.035-.38-.061-.277.324-.7.209-1.058.259a4.585,4.585,0,0,1-1.249-.017,2.8,2.8,0,0,1-1.561-.538,2.753,2.753,0,0,1-.62-.717,7.86,7.86,0,0,1-.906-1.979,5.18,5.18,0,0,1-.128-1.612c.045-.511.068-1.024.125-1.533a6.963,6.963,0,0,1,.167-.771,14.762,14.762,0,0,1,.66-2.814q.383-.858.825-1.688c.327-.617.657-1.233,1.033-1.819a9.14,9.14,0,0,1,1.58-2.072,5.366,5.366,0,0,0,.459-.522,11.115,11.115,0,0,1,1.477-1.406c.464-.366.875-.8,1.343-1.166.525-.4,1.089-.757,1.635-1.133.3-.2.575-.437.887-.611.729-.4,1.475-.778,2.213-1.167a3.457,3.457,0,0,0,.521-.3,6.709,6.709,0,0,1,2.441-1.121,10.67,10.67,0,0,0,1.219-.414c.929-.375,1.93-.445,2.877-.74.026-.009.05-.025.125-.062-.032-.5-.047-1.017-.1-1.533a19.526,19.526,0,0,0-.466-3.161,10.556,10.556,0,0,0-.5-1.394,8.144,8.144,0,0,0-.692-1.357,2.791,2.791,0,0,0-1.575-1.289c-.558-.14-1.106-.32-1.667-.435a3.77,3.77,0,0,0-1.988.223,10.817,10.817,0,0,0-1.827.758,7.246,7.246,0,0,0-2.323,1.84,5.791,5.791,0,0,0-.642,1.183,1.175,1.175,0,0,0-.039.64,8.58,8.58,0,0,0,.3,1.1c.026.079.164.113.218.191a1.5,1.5,0,0,1,.241.441c.032.113-.314.454-.44.492a.394.394,0,0,1-.479-.2,2.941,2.941,0,0,1-.567-1.209c-.034-.3-.25-.551-.206-.887a4.01,4.01,0,0,1,.345-1.259,6.148,6.148,0,0,1,1.847-2.162,8,8,0,0,1,2.056-1.177c.394-.151.775-.339,1.177-.465s.8-.192,1.209-.275a5.251,5.251,0,0,1,2.415.236,4.006,4.006,0,0,1,1.742.81,5.177,5.177,0,0,1,.9,1c.277.422.438.922.694,1.361a8.78,8.78,0,0,1,.892,3.5c.1.857.151,1.72.227,2.581a.712.712,0,0,0,.055.149m-.8,1.208c-.178.047-.337.1-.5.13a11.717,11.717,0,0,0-2.8.762c-.171.074-.355.117-.533.177a9.711,9.711,0,0,0-1.129.395c-.582.281-1.124.65-1.709.919a23.808,23.808,0,0,0-3.215,1.856,21.331,21.331,0,0,0-2.59,2.036,17.332,17.332,0,0,0-2.764,2.916c-.442.646-.868,1.306-1.27,1.979-.282.474-.478,1-.773,1.466a5.876,5.876,0,0,0-.683,1.688c-.165.62-.238,1.266-.4,1.886a10.682,10.682,0,0,0-.33,2.166,4.847,4.847,0,0,0,.3,2.062,7.5,7.5,0,0,0,.727,1.289,1.586,1.586,0,0,0,1.1.7,10.7,10.7,0,0,0,1.968.089,2.135,2.135,0,0,0,.584-.127,5.34,5.34,0,0,0,.525-.189,2.613,2.613,0,0,0,.5-.233c.318-.218.61-.479.932-.691.4-.261.806-.5,1.22-.731a5.554,5.554,0,0,0,1.738-1.6c.375-.5.787-.972,1.172-1.465.537-.687,1.106-1.353,1.583-2.081.779-1.188,1.5-2.415,2.234-3.637a22.087,22.087,0,0,0,1.12-2.032c.458-.991.852-2.015,1.269-3.026.3-.728.6-1.458.888-2.191.129-.325.241-.657.353-.989a2.442,2.442,0,0,0,.084-.385c.086-.536.168-1.072.253-1.608.07-.431.145-.861.208-1.294a.79.79,0,0,0-.059-.242m18.737-9.845a2.241,2.241,0,0,0-.38.357,4.275,4.275,0,0,0-.767,2.317,2.62,2.62,0,0,1-.045.611,3.716,3.716,0,0,0,.045,1.312,7.806,7.806,0,0,0,1.146-4.6m-8.861,4.193.135.036c.193-.386.4-.763.573-1.159s.306-.821.444-1.237a3.659,3.659,0,0,0,.265-1.281c-.015-.422.231-.821.145-1.33a3.039,3.039,0,0,0-.253.276,5.732,5.732,0,0,0-.886,2.2c-.052.287-.113.574-.161.862-.09.543-.175,1.089-.262,1.633m12.934-3.636a6.092,6.092,0,0,0-1.4,3.637,1.473,1.473,0,0,0,.224-.208,12.721,12.721,0,0,0,.772-1.28,6.452,6.452,0,0,0,.535-1.656c.04-.169.085-.351-.126-.493" transform="translate(-7333.229 -2308.801)"/><path class="a" d="M7424.607,2320.515a.626.626,0,0,1-.688.666.476.476,0,0,1-.473-.467.773.773,0,0,1,.746-.646.422.422,0,0,1,.416.447" transform="translate(-7379.692 -2314.604)"/></g></svg>