<svg xmlns="http://www.w3.org/2000/svg" xmlns:xlink="http://www.w3.org/1999/xlink" width="105" height="105" viewBox="0 0 105 105"><defs><style>.a{opacity:0.5;}.b{fill:url(#a);}.c{fill:#fff;}</style><radialGradient id="a" cx="0.5" cy="0.5" r="0.5" gradientTransform="translate(0)" gradientUnits="objectBoundingBox"><stop offset="0" stop-color="#fff" stop-opacity="0.078"/><stop offset="0.477" stop-color="#fff" stop-opacity="0.094"/><stop offset="0.918" stop-color="#fff" stop-opacity="0.137"/><stop offset="1" stop-color="#fff" stop-opacity="0.149"/></radialGradient></defs><g transform="translate(0 0)"><g class="a"><path class="b" d="M846.2,9629.409a52.5,52.5,0,1,1,52.5-52.5A52.56,52.56,0,0,1,846.2,9629.409Z" transform="translate(-793.701 -9524.409)"/></g><g transform="translate(41.834 52.981)"><path class="c" d="M883.423,9655.406a1.122,1.122,0,0,1-1.064-.768l-9.543-28.63a1.122,1.122,0,0,1,1.064-1.478h19.086a1.122,1.122,0,0,1,1.064,1.478l-9.543,28.63A1.121,1.121,0,0,1,883.423,9655.406Zm-7.986-28.63,7.986,23.958,7.986-23.958Z" transform="translate(-872.758 -9624.531)"/></g><g transform="translate(22.748 52.981)"><path class="c" d="M866.441,9655.406a1.121,1.121,0,0,1-.793-.33l-28.63-28.629a1.122,1.122,0,0,1,.793-1.916H856.9a1.121,1.121,0,0,1,1.064.768l9.543,28.629a1.123,1.123,0,0,1-1.064,1.479Zm-25.92-28.63,23.353,23.353-7.784-23.353Z" transform="translate(-836.689 -9624.531)"/></g><g transform="translate(22.748 33.894)"><path class="c" d="M866.441,9638.422a1.123,1.123,0,0,1-.793-1.916l26.714-26.713h-16.4a1.133,1.133,0,0,1-.56-.162h0l0,0H875.4a1.123,1.123,0,0,1-.123-.088h0l0,0h0v0h0s.007,0,0,0h0a1.105,1.105,0,0,1-.264-.322l-.02-.039-8.538-17.074-8.539,17.078a1.168,1.168,0,0,1-2.008,0l-8.539-17.078-8.54,17.078a1.122,1.122,0,0,1-2.008-1l9.544-19.086a1.121,1.121,0,0,1,1-.62h38.151a1.078,1.078,0,0,1,.486.1l.059.029a1.111,1.111,0,0,1,.484.5l9.537,19.072c.007.012.012.025.019.039v0h0a1.4,1.4,0,0,1,.051.135v0h0a1.112,1.112,0,0,1,.041.467h0a1.127,1.127,0,0,1-.061.252h0v0h0a1.142,1.142,0,0,1-.2.332c-.022.025-.044.049-.067.072l-28.625,28.624A1.117,1.117,0,0,1,866.441,9638.422Zm11.359-30.873h15.455l-7.727-15.455Zm-9.543-16.843,7.727,15.455,7.727-15.455Zm-19.087,0,7.727,15.455,7.727-15.455Z" transform="translate(-836.69 -9588.461)"/></g></g></svg>